<?xml version="1.0" encoding="utf-8"?>
<!-- Generator: Adobe Illustrator 19.2.1, SVG Export Plug-In . SVG Version: 6.00 Build 0)  -->
<svg version="1.1" id="Layer_1" xmlns="http://www.w3.org/2000/svg" xmlns:xlink="http://www.w3.org/1999/xlink" x="0px" y="0px"
	 viewBox="0 0 36 19.6" style="enable-background:new 0 0 36 19.6;" xml:space="preserve">
<style type="text/css">
	.st0{fill:#808080;}
	.st1{fill:none;}
	.st2{fill:#FFFFFF;}
	.st3{font-family:'Lato-Regular';}
	.st4{font-size:12px;}
	.st5{display:none;fill:none;stroke:#000000;stroke-miterlimit:10;}
</style>
<path class="st0" d="M32,19.6H4c-2.2,0-4-1.8-4-4V4c0-2.2,1.8-4,4-4h28c2.2,0,4,1.8,4,4v11.6C36,17.8,34.2,19.6,32,19.6z"/>
<rect x="4.5" y="4.7" class="st1" width="29" height="11.2"/>
<text transform="matrix(1 0 0 1 4.5027 13.5208)" class="st2 st3 st4">Daily</text>
<path class="st5" d="M32.5,19.1h-29c-1.7,0-3-1.3-3-3V3.5c0-1.7,1.3-3,3-3h29c1.7,0,3,1.3,3,3v12.6C35.5,17.8,34.2,19.1,32.5,19.1z"
	/>
</svg>
