<?xml version="1.0" encoding="utf-8"?>
<!-- Generator: Adobe Illustrator 19.2.1, SVG Export Plug-In . SVG Version: 6.00 Build 0)  -->
<svg version="1.1" id="Layer_1" xmlns="http://www.w3.org/2000/svg" xmlns:xlink="http://www.w3.org/1999/xlink" x="0px" y="0px"
	 viewBox="0 0 49 19.6" style="enable-background:new 0 0 49 19.6;" xml:space="preserve">
<style type="text/css">
	.st0{fill:#808080;}
	.st1{fill:#FFFFFF;}
	.st2{font-family:'Lato-Regular';}
	.st3{font-size:12px;}
	.st4{fill:none;}
</style>
<path class="st0" d="M45,19.6H4c-2.2,0-4-1.8-4-4V4c0-2.2,1.8-4,4-4h41c2.2,0,4,1.8,4,4v11.6C49,17.8,47.2,19.6,45,19.6z"/>
<text transform="matrix(1 0 0 1 2.9467 13.6101)" class="st1 st2 st3">Intraday</text>
<path class="st4" d="M45.5,19.1h-42c-1.7,0-3-1.3-3-3V3.5c0-1.7,1.3-3,3-3h42c1.7,0,3,1.3,3,3v12.6C48.5,17.8,47.1,19.1,45.5,19.1z"
	/>
</svg>
