<svg id="Layer_1" data-name="Layer 1" xmlns="http://www.w3.org/2000/svg" viewBox="0 0 1070.59 1070.59"><defs><style>.cls-1{fill:none;}.cls-2{fill:#363795;}.cls-3{fill:#666766;}.cls-4{fill:#fff;}</style></defs><title>icon-calculator-v2</title><path class="cls-1" d="M546.09,546.09h524.38c0.07-3.59.12-7.19,0.12-10.8s0-7.21-.12-10.8H546.09V0.12C542.5,0,538.9,0,535.29,0s-7.21,0-10.8.12V524.49H0.12C0,528.09,0,531.68,0,535.29s0,7.21.12,10.8H524.49v524.38c3.59,0.07,7.19.12,10.8,0.12s7.21,0,10.8-.12V546.09Z"/><path class="cls-2" d="M524.49,0.12C237.44,5.8,5.8,237.44.12,524.49H524.49V0.12Z"/><path class="cls-2" d="M1070.47,524.49C1064.79,237.44,833.15,5.8,546.09.12V524.49h524.38Z"/><path class="cls-2" d="M0.12,546.09c5.68,287.06,237.32,518.69,524.38,524.38V546.09H0.12Z"/><path class="cls-3" d="M546.09,1070.47c287.06-5.68,518.69-237.32,524.38-524.38H546.09v524.38Z"/><path class="cls-4" d="M322.52,192.17v101h97.18V319H322.52V420.93H295V319H197.82v-25.8H295v-101h27.52Z"/><path class="cls-4" d="M665.45,709.48v-25.8H887.33v25.8H665.45Zm0,84.28V768H887.33v25.8H665.45Z"/><path class="cls-4" d="M655.36,319.24v-25.8H877.24v25.8H655.36Z"/><path class="cls-4" d="M251.36,629.29l28.29,42.64c7.38,11.07,13.53,21.32,20.09,32.39H301c6.56-11.89,13.12-22.14,19.68-32.8l27.88-42.23h39l-67.65,95.94,69.7,102.5h-41L319.42,783c-7.79-11.48-14.35-22.55-21.32-34.44h-0.82c-6.56,11.89-13.53,22.55-20.91,34.44l-28.7,44.69H207.9l70.52-101.27-67.24-97.17h40.18Z"/></svg>