<svg id="Layer_1" data-name="Layer 1" xmlns="http://www.w3.org/2000/svg" viewBox="0 0 1341.22 1638.38"><defs><style>.cls-1{fill:none;}.cls-2{fill:#363795;}.cls-3{fill:#666766;}.cls-4,.cls-5{fill:#fff;}.cls-5{font-size:450px;font-family:Myriad Pro;letter-spacing:-450px;}</style></defs><title>icon-calculator</title><path class="cls-1" d="M1306.57,1307h524.38c0.07-3.59.12-7.19,0.12-10.8s0-7.21-.12-10.8H1306.57V761c-3.59-.07-7.19-0.12-10.8-0.12s-7.21,0-10.8.12v524.38H760.59c-0.07,3.59-.12,7.19-0.12,10.8s0,7.21.12,10.8H1285v524.38c3.59,0.07,7.19.12,10.8,0.12s7.21,0,10.8-.12V1307Z" transform="translate(-760.47 -193.09)"/><path class="cls-2" d="M1285,761c-287.06,5.68-518.69,237.32-524.38,524.38H1285V761Z" transform="translate(-760.47 -193.09)"/><path class="cls-2" d="M1830.94,1285.37c-5.68-287.06-237.32-518.69-524.38-524.38v524.38h524.38Z" transform="translate(-760.47 -193.09)"/><path class="cls-2" d="M760.59,1307C766.27,1594,997.91,1825.67,1285,1831.35V1307H760.59Z" transform="translate(-760.47 -193.09)"/><path class="cls-3" d="M1306.57,1831.35c287.06-5.68,518.69-237.32,524.38-524.38H1306.57v524.38Z" transform="translate(-760.47 -193.09)"/><path class="cls-4" d="M1083,953.05v101h97.18v25.8H1083v101.91h-27.52V1079.9H958.29v-25.8h97.18v-101H1083Z" transform="translate(-760.47 -193.09)"/><path class="cls-4" d="M1425.93,1470.36v-25.8H1647.8v25.8H1425.93Zm0,84.28v-25.8H1647.8v25.8H1425.93Z" transform="translate(-760.47 -193.09)"/><path class="cls-4" d="M1415.84,1080.12v-25.8h221.88v25.8H1415.84Z" transform="translate(-760.47 -193.09)"/><path class="cls-4" d="M1011.83,1390.17l28.29,42.64c7.38,11.07,13.53,21.32,20.09,32.39h1.23c6.56-11.89,13.12-22.14,19.68-32.8l27.88-42.23h39l-67.65,95.94,69.7,102.5h-41l-29.11-44.69c-7.79-11.48-14.35-22.55-21.32-34.44h-0.82c-6.56,11.89-13.53,22.55-20.91,34.44l-28.7,44.69H968.37l70.52-101.27-67.24-97.17h40.18Z" transform="translate(-760.47 -193.09)"/><text class="cls-5" transform="translate(444.25 376.65)">__</text></svg>